<svg width="200" height="200" viewBox="0 0 200 200" fill="none" xmlns="http://www.w3.org/2000/svg">
  <!-- Square Body (Filling more space) -->
  <rect x="20" y="40" width="160" height="140" rx="30" fill="#F8FAFC"/>
  
  <!-- Spots (Pattern/얼룩) -->
  <path d="M20 70C40 60 60 80 70 100L20 120V70Z" fill="#CBD5E1"/>
  <circle cx="150" cy="70" r="25" fill="#94A3B8"/>
  <circle cx="170" cy="150" r="20" fill="#64748B"/>
  <rect x="80" y="40" width="40" height="20" rx="10" fill="#94A3B8"/>

  <!-- Ears -->
  <path d="M40 45L20 10L65 40L40 45Z" fill="#F8FAFC"/>
  <path d="M160 45L180 10L135 40L160 45Z" fill="#F8FAFC"/>
  
  <!-- Face -->
  <!-- Eyes -->
  <circle cx="70" cy="100" r="8" fill="#1E293B"/>
  <circle cx="130" cy="100" r="8" fill="#1E293B"/>
  <circle cx="72" cy="97" r="3" fill="white"/>
  <circle cx="132" cy="97" r="3" fill="white"/>
  
  <!-- Nose/Mouth -->
  <path d="M95 115L105 115L100 120L95 115Z" fill="#FDA4AF"/>
  <path d="M100 120C100 120 95 125 90 125M100 120C100 120 105 125 110 125" stroke="#1E293B" stroke-width="2" stroke-linecap="round"/>
  
  <!-- Whiskers -->
  <path d="M50 115H25M50 125H25M150 115H175M150 125H175" stroke="#94A3B8" stroke-width="2" stroke-linecap="round"/>
</svg>
